<?xml version="1.0" encoding="UTF-8" standalone="no"?>
<svg width="949.27" xmlns="http://www.w3.org/2000/svg" height="1239.9">
 <g id="layer1">
  <g id="g3406" fill="#194a70" transform="matrix(.87990 0 0 .87990 -93.228 322.57)">
   <path id="path2895" fill-rule="evenodd" fill="#000" d="m984.79-366.6c64.337 15.85 130.3 33.33 200.01 54.548-62.257 64.721-130.58 117.32-197.99 171.73-19.372 26.782 136.62 58.789 116.17 91.924-31.782 50.584-70.604 87.085-113.14 116.17l57.579 114.15c54.515 1.9288 80.961 7.8676 97.985 15.152 17.451 9.0124 10.621 14.381 2.0203 18.183l1.0103 70.711c9.4281 7.4078 12.122 13.469 8.0812 18.183-7.4482 52.407-9.965 119.61-12.122 187.89l7.0712 1.0101c3.3643 22.891-1.608 29.109-3.0305 42.426l-7.071 4.0406c-28.645 54.649-42.895 48.122-61.619 60.609 5.7197 27.75-17.2 22.769-28.284 31.315-15.612 8.8312-15.3 15.008-15.152 21.213 12.769-4.1659 14.15-0.19782 8.0813 9.0914 1.6558 17.776-4.7496 19.946-8.0813 25.254 5.0599 8.7546 1.5828 17.509-4.0405 26.264 2.4329 12.871-4.9106 15.966-10.102 21.213 7.5184 7.4455 1.3778 17.168-7.0711 27.274 0.94409 9.0583-5.0223 14.661-9.0914 21.213-2.7884 9.0283 6.0019 25.776-11.112 25.254-1.2296 8.9401 3.3416 15.946-5.0507 27.274-7.4946 50.497-25.4 59.35-40.406 79.802-23.593 8.5923-16.15 34.427-17.173 55.558 12.326 7.7445 8.4828 15.489 8.0812 23.234 27.02 21.705 9.7128 29.771 4.0406 41.416-15.489 12.449-30.978 4.6257-46.467 5.0508-11.181-5.7241-11.408-11.448-12.122-17.172-19.997 1.7206-14.455-16.99-8.0812-36.366 5.7306-31.988-0.43817-63.976-5.0507-95.964-4.6143-14.643-5.0153-28.082 9.0913-37.376-51.654-66.68-24.536-84.489-20.203-115.66-5.2986-11.339 1.3214-23.048 0.50513-34.85 3.7039 7.9101 2.8621 18.833 6.566 24.244 2.9875-8.8496 9.1526-16.905 2.0203-28.284-23.907 9.0727-47.814 13.026-71.721 27.274l-134.35-46.467-17.173 51.518c3.9645 4.7901 10.977 6.5325 10.102 16.162 3.7747 6.0846 3.2957 10.751-1.0101 14.142-4.8939 9.474-8.9042 15.414-11.112 14.142l-3.0305 29.294c0.32812 8.7677 5.4832 10.295 11.112 11.112 4.6054 6.8429 13.311 9.5859 13.132 21.213l30.305 17.173-7.071 6.0609v26.264l12.122 6.0609-72.731 43.436-67.68-31.315c-3.8464 8.133-6.5731 18.505-18.183 11.112-16.567-3.9977-11.92-11.852 1.0101-21.213l-19.193-8.0812c-16.918 4.0768-33.801 8.0675-45.457-1.0102-7.6472-9.5079 3.3656-12.796 11.112-17.173l-11.112-4.0406 1.0101-9.0914 12.122-3.0304 2.0203-29.294-8.0812-1.0102 1.0101-8.0812c21.715-1.656 21.361-6.9903 28.284-11.112-3.138-16.855 13.229-18.105 22.223-25.254l-1.0101-32.325-13.132-9.0914c-4.841-7.5237-6.8859-14.348-1.0102-19.193-0.060852-10.223 4.8778-10.448 10.102-10.102l2.0203-70.711-166.68-60.609c-0.44983 9.4075 7.4156 0.52136-5.0508 36.365-4.3773 6.005-8.7547 3.6804-13.132-1.0101l10.102 52.528-1.0101 66.67c8.8963 7.0357 20.363 13.429-2.0203 28.284-10.327 8.0758-22.339 6.0423-35.355-2.0203-19.156 1.326-13.41-11.578-15.152-20.203l9.0914-11.112 7.0711-15.152c-3.205-71.322-38.515-69.261-58.589-102.02-9.0475-4.8995-18.951-8.3724-20.203-26.264-4.0532-7.0396-10.92-7.0441-10.102-26.264-9.1821-19.497-7.3373-22.454-6.0609-26.264-34.536-14.172-66.893-27.526-122.23-49.498v-33.335l3.0305-1.0102 1.0101-11.112h4.0406l-1.0101-24.244c33.694-19.176 89.225-34.949 83.843-74.751 1.7024-22.761-0.050919-39.475-9.0914-43.437-1.3434-13.8 0.15115-23.344-6.0609-44.447 63.398-24.27 145.97-19.772 219.2-29.294l3.0305-8.0812-7.0711 1.0101-4.0406-8.0812 19.193-13.132c7.0076-8.2082 10.49-23.468 12.122-42.426h17.173c9.1487-12.545 15.929-26.143 48.487-28.284 164.99-161.96 321.32-312.38 494.98-485.88zm-14.142 443.46l50.508 100.01c-68.017-7.2375-136.03-6.7258-204.05-6.0609 51.665-29.378 104.37-54.597 153.54-93.944h-0.0001zm16.162 608.11l30.305-17.173c-17.127 14.816-23.689 29.631-30.305 44.447l-4.0406-6.0609 7.0712-8.0813c3.3868-1.0795 4.2845-4.026-3.0305-13.132zm-426.28-38.386c0 4.0406 3.0305 60.609 3.0305 60.609 4.3774 0.729 8.7547-3.5026 13.132 7.0711l-2.0203 16.162c-2.0507 6.704-4.7568 12.752-12.122 14.142l-1.0102 28.284 10.102 14.142 9.0914 6.0609 2.0203 7.071 1.0101-148.49-23.234-5.0507zm455.58 47.477l1.0101 162.63 12.122 3.0305 13.132-13.132 2.0204-33.335c-5.0508-1.8343-10.102-3.9894-15.152-11.112-4.2238-5.0508-1.8563-10.101-1.0101-15.152 2.1668-5.9146 7.3799-8.7826 12.122-12.122l3.0305-73.741-27.274-7.0711zm53.538 19.193c-2.0203 4.0406-2.0203 34.345-2.0203 34.345l12.122-31.315-10.102-3.0305zm-790.95-170.72c2.0203 8.0812 8.0812 21.213 8.0812 21.213l1.0102-14.142-9.0914-7.071z"/>
  </g>
 </g>
</svg>
