<?xml version="1.0" encoding="UTF-8" standalone="no"?>
<!-- Created with clker.com Auto tracing tool http://www.clker.com) -->

<svg
   xmlns:dc="http://purl.org/dc/elements/1.1/"
   xmlns:cc="http://creativecommons.org/ns#"
   xmlns:rdf="http://www.w3.org/1999/02/22-rdf-syntax-ns#"
   xmlns:svg="http://www.w3.org/2000/svg"
   xmlns="http://www.w3.org/2000/svg"
   xmlns:sodipodi="http://sodipodi.sourceforge.net/DTD/sodipodi-0.dtd"
   xmlns:inkscape="http://www.inkscape.org/namespaces/inkscape"
   width="1057.000000"
   height="946.000000"
   id="svg2"
   version="1.1"
   inkscape:version="0.48.4 r9939"
   sodipodi:docname="techno.svg">
  <metadata
     id="metadata50">
    <rdf:RDF>
      <cc:Work
         rdf:about="">
        <dc:format>image/svg+xml</dc:format>
        <dc:type
           rdf:resource="http://purl.org/dc/dcmitype/StillImage" />
      </cc:Work>
    </rdf:RDF>
  </metadata>
  <defs
     id="defs48" />
  <sodipodi:namedview
     pagecolor="#ffffff"
     bordercolor="#666666"
     borderopacity="1"
     objecttolerance="10"
     gridtolerance="10"
     guidetolerance="10"
     inkscape:pageopacity="0"
     inkscape:pageshadow="2"
     inkscape:window-width="1366"
     inkscape:window-height="768"
     id="namedview46"
     showgrid="false"
     inkscape:zoom="0.35280592"
     inkscape:cx="445.32383"
     inkscape:cy="703.85649"
     inkscape:window-x="0"
     inkscape:window-y="0"
     inkscape:window-maximized="0"
     inkscape:current-layer="svg2" />
  <path
     style="opacity:1;fill:#6a6a6a;fill-rule:evenodd;stroke:#6a6a6a;stroke-width:0.50000000000000000px;stroke-linecap:butt;stroke-linejoin:miter;stroke-opacity:1;fill-opacity:1"
     d="M 922.8 537.0 L 923.0 538.0 L 923.0 538.2 Q 923.0 538.5 911.0 537.2 L 899.0 536.0 L 898.8 533.5 L 898.5 531.0 L 898.2 530.8 L 898.0 530.5 L 897.0 530.0 Q 896.0 529.5 893.0 528.2 Q 890.0 527.0 889.8 526.0 Q 889.5 525.0 886.2 521.8 Q 883.0 518.5 874.0 514.0 Q 865.0 509.5 855.5 502.5 Q 846.0 495.5 840.0 492.5 Q 834.0 489.5 832.2 487.8 Q 830.5 486.0 821.0 480.0 Q 811.5 474.0 794.2 463.8 Q 777.0 453.5 773.0 448.2 Q 769.0 443.0 759.0 437.2 Q 749.0 431.5 746.2 426.8 Q 743.5 422.0 738.0 415.5 Q 732.5 409.0 725.8 405.2 Q 719.0 401.5 713.0 396.5 Q 707.0 391.5 687.5 383.0 Q 668.0 374.5 662.5 370.8 L 657.0 367.0 L 657.2 366.0 L 657.5 365.0 L 657.5 364.0 L 657.5 363.0 L 657.2 362.8 L 657.0 362.5 L 656.8 362.2 L 656.5 362.0 L 656.2 361.8 L 656.0 361.5 L 655.8 361.2 L 655.5 361.0 L 655.2 360.8 L 655.0 360.5 L 654.0 360.0 Q 653.0 359.5 647.5 355.0 Q 642.0 350.5 636.2 343.2 Q 630.5 336.0 625.2 331.8 Q 620.0 327.5 602.2 313.2 Q 584.5 299.0 563.8 290.8 Q 543.0 282.5 531.5 282.0 Q 520.0 281.5 513.2 277.8 Q 506.5 274.0 502.2 273.0 L 498.0 272.0 L 498.2 270.0 L 498.5 268.0 L 499.0 266.5 L 499.5 265.0 L 499.8 263.5 L 500.0 262.0 L 499.0 262.0 L 498.0 262.0 L 498.0 261.0 L 498.0 260.0 L 500.0 260.2 L 502.0 260.5 L 502.2 260.8 L 502.5 261.0 L 502.8 261.2 Q 503.0 261.5 510.5 264.0 Q 518.0 266.5 524.0 267.0 Q 530.0 267.5 531.2 266.2 Q 532.5 265.0 534.0 259.0 Q 535.5 253.0 537.8 252.2 Q 540.0 251.5 541.2 248.2 Q 542.5 245.0 544.2 243.8 Q 546.0 242.5 546.8 238.8 Q 547.5 235.0 549.8 231.2 Q 552.0 227.5 556.0 226.5 Q 560.0 225.5 561.2 223.8 Q 562.5 222.0 561.5 215.0 Q 560.5 208.0 561.2 204.0 Q 562.0 200.0 563.0 199.8 Q 564.0 199.5 567.2 195.8 Q 570.5 192.0 573.5 177.0 Q 576.5 162.0 581.8 157.2 Q 587.0 152.5 587.8 150.2 Q 588.5 148.0 586.0 135.0 Q 583.5 122.0 581.2 119.8 Q 579.0 117.5 578.2 115.2 Q 577.5 113.0 575.2 113.0 Q 573.0 113.0 572.0 109.0 Q 571.0 105.0 567.0 105.5 Q 563.0 106.0 562.8 104.5 Q 562.5 103.0 561.8 102.8 Q 561.0 102.5 556.5 100.5 Q 552.0 98.5 547.5 94.0 Q 543.0 89.5 538.0 89.0 Q 533.0 88.5 525.0 91.5 Q 517.0 94.5 513.0 95.5 Q 509.0 96.5 505.5 99.5 Q 502.0 102.5 497.0 108.2 Q 492.0 114.0 491.0 114.0 Q 490.0 114.0 490.0 115.0 Q 490.0 116.0 489.0 116.0 Q 488.0 116.0 488.2 121.0 Q 488.5 126.0 488.5 129.0 Q 488.5 132.0 485.8 133.8 Q 483.0 135.5 484.2 136.8 Q 485.5 138.0 489.0 145.0 Q 492.5 152.0 493.0 160.0 Q 493.5 168.0 492.5 172.0 Q 491.5 176.0 489.2 179.2 Q 487.0 182.5 483.5 185.5 Q 480.0 188.5 472.5 189.2 Q 465.0 190.0 464.8 193.5 L 464.5 197.0 L 464.0 198.0 L 463.5 199.0 L 463.2 199.0 L 463.0 199.0 L 462.5 198.8 L 462.0 198.5 L 461.8 198.2 L 461.5 198.0 L 461.2 197.8 L 461.0 197.5 L 461.2 197.2 L 461.5 197.0 L 461.5 196.5 L 461.5 196.0 L 461.0 191.5 Q 460.5 187.0 459.2 186.5 Q 458.0 186.0 456.0 183.8 Q 454.0 181.5 453.0 181.2 Q 452.0 181.0 449.2 175.0 Q 446.5 169.0 447.0 158.5 Q 447.5 148.0 450.8 143.2 Q 454.0 138.5 461.8 134.2 Q 469.5 130.0 468.2 127.8 Q 467.0 125.5 467.2 122.2 Q 467.5 119.0 467.8 118.0 Q 468.0 117.0 471.8 115.5 Q 475.5 114.0 476.2 112.0 Q 477.0 110.0 478.0 110.0 Q 479.0 110.0 482.0 105.0 Q 485.0 100.0 486.0 100.0 Q 487.0 100.0 487.0 99.0 Q 487.0 98.0 488.0 98.0 Q 489.0 98.0 489.0 97.0 Q 489.0 96.0 490.0 96.0 Q 491.0 96.0 491.0 95.0 Q 491.0 94.0 493.0 92.8 Q 495.0 91.5 496.0 91.0 L 497.0 90.5 L 497.2 90.2 L 497.5 90.0 L 497.8 89.8 L 498.0 89.5 L 499.0 89.2 L 500.0 89.0 L 500.2 87.5 L 500.5 86.0 L 500.5 85.0 L 500.5 84.0 L 500.2 83.8 L 500.0 83.5 L 497.5 83.5 L 495.0 83.5 L 489.0 84.0 Q 483.0 84.5 481.0 85.0 Q 479.0 85.5 477.5 87.2 Q 476.0 89.0 474.0 89.5 Q 472.0 90.0 472.0 91.5 Q 472.0 93.0 470.5 93.2 Q 469.0 93.5 467.0 95.5 Q 465.0 97.5 460.5 98.2 Q 456.0 99.0 453.8 102.5 Q 451.5 106.0 451.8 108.0 Q 452.0 110.0 451.0 110.2 Q 450.0 110.5 448.8 114.8 Q 447.5 119.0 444.5 123.5 Q 441.5 128.0 441.0 134.0 Q 440.5 140.0 438.5 143.5 Q 436.5 147.0 434.5 151.0 Q 432.5 155.0 433.2 174.0 Q 434.0 193.0 436.5 193.0 Q 439.0 193.0 438.8 196.5 Q 438.5 200.0 436.0 204.5 Q 433.5 209.0 414.8 222.2 L 396.0 235.5 L 395.8 235.8 L 395.5 236.0 L 395.2 236.2 L 395.0 236.5 L 394.0 237.0 L 393.0 237.5 L 392.8 237.8 L 392.5 238.0 L 392.2 238.2 L 392.0 238.5 L 392.0 238.8 L 392.0 239.0 L 391.5 238.8 Q 391.0 238.5 388.5 238.5 Q 386.0 238.5 381.5 242.0 Q 377.0 245.5 370.5 244.5 Q 364.0 243.5 349.0 243.0 Q 334.0 242.5 330.0 243.5 Q 326.0 244.5 309.5 254.8 Q 293.0 265.0 288.8 270.0 Q 284.5 275.0 280.5 288.0 Q 276.5 301.0 272.0 310.5 Q 267.5 320.0 260.5 342.0 Q 253.5 364.0 252.5 371.0 L 251.5 378.0 L 252.0 379.0 L 252.5 380.0 L 252.8 380.2 L 253.0 380.5 L 253.2 380.8 L 253.5 381.0 L 253.8 381.2 L 254.0 381.5 L 254.5 381.8 L 255.0 382.0 L 248.8 391.0 Q 242.5 400.0 234.8 406.8 Q 227.0 413.5 223.8 416.8 Q 220.5 420.0 215.0 432.0 Q 209.5 444.0 208.0 459.5 Q 206.5 475.0 206.0 485.0 Q 205.5 495.0 202.0 507.5 Q 198.5 520.0 192.0 527.0 Q 185.5 534.0 175.2 551.0 Q 165.0 568.0 157.8 572.0 Q 150.5 576.0 145.8 581.8 Q 141.0 587.5 136.0 591.0 Q 131.0 594.5 122.2 603.2 Q 113.5 612.0 113.2 612.2 L 113.0 612.5 L 112.8 612.8 L 112.5 613.0 L 112.2 613.2 L 112.0 613.5 L 111.8 613.8 L 111.5 614.0 L 111.0 615.5 L 110.5 617.0 L 110.2 617.2 L 110.0 617.5 L 110.2 617.8 L 110.5 618.0 L 111.0 619.0 L 111.5 620.0 L 111.8 620.2 L 112.0 620.5 L 112.2 620.8 L 112.5 621.0 L 112.8 621.2 L 113.0 621.5 L 113.5 621.8 L 114.0 622.0 L 114.0 622.2 L 114.0 622.5 L 105.0 623.8 Q 96.0 625.0 94.2 638.5 Q 92.5 652.0 92.0 656.5 L 91.5 661.0 L 91.2 661.0 L 91.0 661.0 L 91.0 660.8 L 91.0 660.5 L 77.5 659.5 Q 64.0 658.5 58.5 655.0 Q 53.0 651.5 49.2 646.8 Q 45.5 642.0 44.5 638.5 Q 43.5 635.0 44.0 343.5 Q 44.5 52.0 48.8 45.8 Q 53.0 39.5 58.0 36.5 Q 63.0 33.5 482.5 33.5 Q 902.0 33.5 906.8 36.2 Q 911.5 39.0 916.0 45.0 Q 920.5 51.0 921.5 293.5 Q 922.5 536.0 922.8 537.0 z  "
     id="path6" />
  <path
     style="opacity:1;fill:#000000;fill-rule:evenodd;stroke:#000000;stroke-width:0.5px;stroke-linecap:butt;stroke-linejoin:miter;stroke-opacity:1;"
     d="M 997.0 550.8 L 991.0 549.0 L 1007.0 551.2 Q 1023.0 553.5 1026.0 554.0 L 1029.0 554.5 L 1029.2 554.8 L 1029.5 555.0 L 1029.5 556.0 Q 1029.5 557.0 1023.8 597.0 Q 1018.0 637.0 570.0 780.5 L 122.0 924.0 L 121.8 922.5 Q 121.5 921.0 99.5 849.5 Q 77.5 778.0 84.2 719.5 L 91.0 661.0 L 91.2 661.0 L 91.5 661.0 L 92.0 656.5 Q 92.5 652.0 94.2 638.5 Q 96.0 625.0 105.0 623.8 L 114.0 622.5 L 114.0 622.2 L 114.0 622.0 L 120.5 621.2 Q 127.0 620.5 131.0 620.0 L 135.0 619.5 L 137.0 619.2 L 139.0 619.0 L 139.0 620.0 L 139.0 621.0 L 136.5 621.2 L 134.0 621.5 L 121.8 623.8 Q 109.5 626.0 106.0 684.0 Q 102.5 742.0 102.0 751.0 L 101.5 760.0 L 101.2 761.5 L 101.0 763.0 L 103.5 762.8 L 106.0 762.5 L 269.5 725.0 Q 433.0 687.5 435.5 687.0 L 438.0 686.5 L 439.0 686.2 L 440.0 686.0 L 628.5 642.8 Q 817.0 599.5 819.5 599.0 L 822.0 598.5 L 824.0 598.0 L 826.0 597.5 L 826.0 597.2 L 826.0 597.0 L 913.5 577.2 Q 1001.0 557.5 1002.5 557.0 L 1004.0 556.5 L 1006.5 556.0 L 1009.0 555.5 L 1010.5 555.0 L 1012.0 554.5 L 1011.0 554.0 L 1010.0 553.5 L 1006.5 553.0 Q 1003.0 552.5 997.0 550.8 z  "
     id="path8" />
  <path
     style="opacity:1;fill:#000000;fill-rule:evenodd;stroke:#000000;stroke-width:0.5px;stroke-linecap:butt;stroke-linejoin:miter;stroke-opacity:1;"
     d="M 457.8 231.0 L 459.0 226.0 L 459.0 227.5 L 459.0 229.0 L 459.0 229.5 L 459.0 230.0 L 459.2 247.0 Q 459.5 264.0 469.2 266.2 Q 479.0 268.5 484.0 269.0 Q 489.0 269.5 492.2 269.8 Q 495.5 270.0 496.5 267.5 Q 497.5 265.0 497.8 263.5 L 498.0 262.0 L 498.2 262.0 Q 498.5 262.0 498.8 261.5 L 499.0 261.0 L 500.0 261.0 L 501.0 261.0 L 500.8 261.5 Q 500.5 262.0 500.0 263.5 L 499.5 265.0 L 499.0 266.5 L 498.5 268.0 L 498.2 270.0 L 498.0 272.0 L 502.2 273.0 Q 506.5 274.0 513.2 277.8 Q 520.0 281.5 531.5 282.0 Q 543.0 282.5 563.8 290.8 Q 584.5 299.0 602.2 313.2 Q 620.0 327.5 625.2 331.8 Q 630.5 336.0 636.2 343.2 Q 642.0 350.5 647.5 355.0 Q 653.0 359.5 654.0 360.0 L 655.0 360.5 L 655.2 360.8 L 655.5 361.0 L 655.8 361.2 L 656.0 361.5 L 656.2 361.8 L 656.5 362.0 L 656.8 362.2 L 657.0 362.5 L 657.2 362.8 L 657.5 363.0 L 657.5 364.0 L 657.5 365.0 L 657.2 366.0 L 657.0 367.0 L 656.5 366.8 L 656.0 366.5 L 655.0 366.0 L 654.0 365.5 L 653.8 365.2 L 653.5 365.0 L 653.2 365.2 Q 653.0 365.5 651.0 366.5 Q 649.0 367.5 640.5 373.5 Q 632.0 379.5 627.8 385.8 Q 623.5 392.0 623.0 403.5 L 622.5 415.0 L 622.8 416.0 L 623.0 417.0 L 622.5 417.2 L 622.0 417.5 L 617.0 417.5 Q 612.0 417.5 610.0 417.0 Q 608.0 416.5 590.0 409.0 L 572.0 401.5 L 570.5 401.5 L 569.0 401.5 L 568.8 401.8 L 568.5 402.0 L 565.0 419.0 Q 561.5 436.0 559.5 440.0 Q 557.5 444.0 557.0 453.5 Q 556.5 463.0 552.5 477.5 Q 548.5 492.0 549.0 507.0 Q 549.5 522.0 555.0 537.5 Q 560.5 553.0 570.2 552.2 Q 580.0 551.5 587.0 550.5 Q 594.0 549.5 598.0 549.0 L 602.0 548.5 L 604.0 548.5 L 606.0 548.5 L 606.0 548.8 L 606.0 549.0 L 604.5 549.2 L 603.0 549.5 L 599.5 550.0 L 596.0 550.5 L 596.0 550.8 L 596.0 551.0 L 593.5 551.2 Q 591.0 551.5 544.5 558.8 L 498.0 566.0 L 497.0 566.2 Q 496.0 566.5 464.0 571.5 L 432.0 576.5 L 428.5 577.0 L 425.0 577.5 L 425.0 577.8 L 425.0 578.0 L 422.0 578.2 Q 419.0 578.5 367.5 586.0 L 316.0 593.5 L 313.0 594.0 L 310.0 594.5 L 309.0 594.8 L 308.0 595.0 L 308.0 594.0 L 308.0 593.0 L 309.5 592.8 L 311.0 592.5 L 315.0 592.0 Q 319.0 591.5 330.5 589.5 Q 342.0 587.5 342.2 585.2 Q 342.5 583.0 337.5 546.0 Q 332.5 509.0 331.5 482.0 Q 330.5 455.0 327.8 432.5 L 325.0 410.0 L 322.5 410.2 Q 320.0 410.5 318.0 411.0 L 316.0 411.5 L 316.0 411.2 L 316.0 411.0 L 316.2 410.0 L 316.5 409.0 L 317.0 407.5 Q 317.5 406.0 321.0 394.0 Q 324.5 382.0 321.2 378.2 Q 318.0 374.5 311.0 370.5 Q 304.0 366.5 289.5 366.0 Q 275.0 365.5 267.5 367.2 Q 260.0 369.0 258.2 373.0 L 256.5 377.0 L 256.0 378.5 L 255.5 380.0 L 255.2 381.0 L 255.0 382.0 L 254.5 381.8 L 254.0 381.5 L 253.8 381.2 L 253.5 381.0 L 253.2 380.8 L 253.0 380.5 L 252.8 380.2 L 252.5 380.0 L 252.0 379.0 L 251.5 378.0 L 252.5 371.0 Q 253.5 364.0 260.5 342.0 Q 267.5 320.0 272.0 310.5 Q 276.5 301.0 280.5 288.0 Q 284.5 275.0 288.8 270.0 Q 293.0 265.0 309.5 254.8 Q 326.0 244.5 330.0 243.5 Q 334.0 242.5 349.0 243.0 Q 364.0 243.5 370.5 244.5 Q 377.0 245.5 381.5 242.0 Q 386.0 238.5 388.5 238.5 Q 391.0 238.5 391.5 238.8 L 392.0 239.0 L 392.0 239.2 L 392.0 239.5 L 392.2 239.8 L 392.5 240.0 L 392.8 240.2 L 393.0 240.5 L 393.2 240.8 L 393.5 241.0 L 393.8 241.2 L 394.0 241.5 L 394.2 241.8 L 394.5 242.0 L 394.8 242.2 L 395.0 242.5 L 395.2 242.8 L 395.5 243.0 L 395.8 243.2 L 396.0 243.5 L 396.2 243.8 L 396.5 244.0 L 396.8 244.2 L 397.0 244.5 L 422.5 253.0 Q 448.0 261.5 450.0 262.0 L 452.0 262.5 L 454.0 263.0 L 456.0 263.5 L 456.2 263.8 L 456.5 264.0 L 456.5 263.0 L 456.5 262.0 L 456.5 249.0 Q 456.5 236.0 457.8 231.0 z  "
     id="path10" />
  <path
     style="opacity:1;fill:#6a6a6a;fill-rule:evenodd;stroke:#6a6a6a;stroke-width:0.50000000000000000px;stroke-linecap:butt;stroke-linejoin:miter;stroke-opacity:1;fill-opacity:1"
     d="M 568.8 401.8 L 569.0 401.5 L 570.5 401.5 L 572.0 401.5 L 590.0 409.0 Q 608.0 416.5 610.0 417.0 Q 612.0 417.5 617.0 417.5 L 622.0 417.5 L 622.5 417.2 L 623.0 417.0 L 632.0 421.2 Q 641.0 425.5 658.0 433.0 Q 675.0 440.5 681.5 446.5 Q 688.0 452.5 698.0 457.5 Q 708.0 462.5 721.0 466.0 Q 734.0 469.5 739.0 472.8 Q 744.0 476.0 747.2 484.5 Q 750.5 493.0 752.5 501.0 Q 754.5 509.0 757.5 514.5 Q 760.5 520.0 761.0 522.0 L 761.5 524.0 L 761.5 525.0 L 761.5 526.0 L 761.2 526.0 L 761.0 526.0 L 758.0 526.2 Q 755.0 526.5 709.0 533.5 Q 663.0 540.5 646.5 542.5 Q 630.0 544.5 618.0 546.8 L 606.0 549.0 L 606.0 548.8 L 606.0 548.5 L 604.0 548.5 L 602.0 548.5 L 598.0 549.0 Q 594.0 549.5 587.0 550.5 Q 580.0 551.5 570.2 552.2 Q 560.5 553.0 555.0 537.5 Q 549.5 522.0 549.0 507.0 Q 548.5 492.0 552.5 477.5 Q 556.5 463.0 557.0 453.5 Q 557.5 444.0 559.5 440.0 Q 561.5 436.0 565.0 419.0 L 568.5 402.0 L 568.8 401.8 z  "
     id="path12" />
  <path
     style="opacity:1;fill:#000000;fill-rule:evenodd;stroke:#000000;stroke-width:0.5px;stroke-linecap:butt;stroke-linejoin:miter;stroke-opacity:1;"
     d="M 266.0 675.0 L 263.0 674.5 L 261.0 674.2 L 259.0 674.0 L 259.2 673.0 L 259.5 672.0 L 259.8 671.8 L 260.0 671.5 L 260.2 671.2 L 260.5 671.0 L 260.8 670.8 L 261.0 670.5 L 261.2 670.2 L 261.5 670.0 L 261.8 669.8 L 262.0 669.5 L 262.2 669.2 L 262.5 669.0 L 262.8 668.8 L 263.0 668.5 L 263.2 668.2 L 263.5 668.0 L 263.8 667.8 Q 264.0 667.5 270.0 661.5 Q 276.0 655.5 289.0 647.0 L 302.0 638.5 L 303.0 638.0 L 304.0 637.5 L 304.2 637.2 L 304.5 637.0 L 304.8 636.8 L 305.0 636.5 L 306.0 636.0 L 307.0 635.5 L 307.2 635.2 L 307.5 635.0 L 307.8 634.8 L 308.0 634.5 L 295.5 635.0 Q 283.0 635.5 271.5 642.5 Q 260.0 649.5 260.8 650.2 Q 261.5 651.0 252.2 659.8 Q 243.0 668.5 236.8 665.8 Q 230.5 663.0 228.0 660.5 Q 225.5 658.0 225.5 652.5 Q 225.5 647.0 229.2 642.2 Q 233.0 637.5 243.0 631.5 Q 253.0 625.5 274.5 618.0 Q 296.0 610.5 325.0 604.5 Q 354.0 598.5 376.5 596.0 Q 399.0 593.5 430.5 593.5 Q 462.0 593.5 480.0 596.5 Q 498.0 599.5 508.0 604.5 Q 518.0 609.5 519.8 612.2 Q 521.5 615.0 520.8 620.2 Q 520.0 625.5 514.0 631.5 Q 508.0 637.5 496.0 643.5 Q 484.0 649.5 467.0 655.0 Q 450.0 660.5 421.0 666.5 Q 392.0 672.5 368.5 675.0 Q 345.0 677.5 310.5 677.0 Q 276.0 676.5 272.5 676.0 Q 269.0 675.5 266.0 675.0 z  M 337.0 640.0 L 336.0 639.5 L 335.0 639.0 L 334.0 638.5 L 333.0 638.0 L 332.0 637.5 L 331.8 637.2 L 331.5 637.0 L 331.5 634.0 L 331.5 631.0 L 331.8 630.8 L 332.0 630.5 L 332.2 630.2 L 332.5 630.0 L 332.8 629.8 L 333.0 629.5 L 333.2 629.2 L 333.5 629.0 L 333.8 628.8 L 334.0 628.5 L 342.5 625.0 Q 351.0 621.5 366.5 618.5 Q 382.0 615.5 400.0 616.0 Q 418.0 616.5 423.0 618.2 Q 428.0 620.0 427.8 623.5 Q 427.5 627.0 420.8 630.8 Q 414.0 634.5 398.5 638.0 Q 383.0 641.5 363.0 641.5 Q 343.0 641.5 340.5 641.0 Q 338.0 640.5 337.0 640.0 z  "
     id="path14" />
  <path
     style="opacity:1;fill:#5a5a5a;fill-rule:evenodd;stroke:#5a5a5a;stroke-width:0.50000000000000000px;stroke-linecap:butt;stroke-linejoin:miter;stroke-opacity:1;fill-opacity:1"
     d="M 422.0 578.2 L 425.0 578.0 L 425.0 579.0 L 425.0 580.0 L 426.0 579.8 L 427.0 579.5 L 447.5 579.5 Q 468.0 579.5 524.5 607.0 Q 581.0 634.5 581.2 634.8 L 581.5 635.0 L 581.8 635.2 L 582.0 635.5 L 583.0 636.0 L 584.0 636.5 L 584.2 636.8 L 584.5 637.0 L 584.8 637.2 L 585.0 637.5 L 585.2 637.8 L 585.5 638.0 L 585.5 640.0 L 585.5 642.0 L 585.2 642.2 L 585.0 642.5 L 584.8 642.8 L 584.5 643.0 L 584.2 643.2 L 584.0 643.5 L 583.8 643.8 L 583.5 644.0 L 583.2 644.2 L 583.0 644.5 L 581.5 645.0 Q 580.0 645.5 558.0 651.0 Q 536.0 656.5 488.0 667.5 L 440.0 678.5 L 438.0 679.0 L 436.0 679.5 L 435.5 679.8 L 435.0 680.0 L 433.5 680.2 Q 432.0 680.5 346.0 699.5 Q 260.0 718.5 209.5 729.0 Q 159.0 739.5 146.0 738.8 Q 133.0 738.0 132.5 735.0 Q 132.0 732.0 131.0 732.0 Q 130.0 732.0 130.0 730.0 Q 130.0 728.0 131.0 728.0 Q 132.0 728.0 132.0 726.0 Q 132.0 724.0 130.5 723.8 Q 129.0 723.5 130.5 722.8 Q 132.0 722.0 132.0 711.5 Q 132.0 701.0 130.0 701.0 Q 128.0 701.0 128.5 694.0 Q 129.0 687.0 130.0 687.0 Q 131.0 687.0 130.5 683.0 Q 130.0 679.0 129.0 679.0 Q 128.0 679.0 128.2 677.0 Q 128.5 675.0 129.2 670.5 Q 130.0 666.0 129.2 665.5 Q 128.5 665.0 128.8 660.5 Q 129.0 656.0 128.0 656.0 Q 127.0 656.0 127.2 653.5 Q 127.5 651.0 127.0 648.0 Q 126.5 645.0 127.5 645.0 Q 128.5 645.0 129.0 638.0 Q 129.5 631.0 134.8 628.8 L 140.0 626.5 L 141.0 626.0 L 142.0 625.5 L 143.5 625.0 L 145.0 624.5 L 146.0 624.0 L 147.0 623.5 L 148.0 623.5 L 149.0 623.5 L 149.5 623.8 L 150.0 624.0 L 150.0 624.2 L 150.0 624.5 L 149.8 624.8 L 149.5 625.0 L 148.5 628.0 Q 147.5 631.0 147.0 635.5 L 146.5 640.0 L 146.2 640.2 L 146.0 640.5 L 146.2 640.8 L 146.5 641.0 L 147.0 642.0 L 147.5 643.0 L 147.8 643.2 L 148.0 643.5 L 149.0 644.0 L 150.0 644.5 L 153.5 644.5 L 157.0 644.5 L 158.0 644.0 L 159.0 643.5 L 159.2 643.2 Q 159.5 643.0 164.5 634.5 Q 169.5 626.0 173.5 621.5 L 177.5 617.0 L 177.8 616.8 L 178.0 616.5 L 178.2 616.2 L 178.5 616.0 L 178.8 615.8 L 179.0 615.5 L 179.2 615.2 L 179.5 615.0 L 179.8 614.8 L 180.0 614.5 L 180.2 614.2 L 180.5 614.0 L 180.8 613.0 L 181.0 612.0 L 183.0 612.2 L 185.0 612.5 L 184.8 612.8 L 184.5 613.0 L 184.0 614.0 L 183.5 615.0 L 183.0 621.0 Q 182.5 627.0 183.0 628.0 L 183.5 629.0 L 183.8 629.2 L 184.0 629.5 L 184.2 629.8 L 184.5 630.0 L 184.8 630.2 L 185.0 630.5 L 191.0 630.5 Q 197.0 630.5 197.5 630.0 Q 198.0 629.5 206.0 618.8 L 214.0 608.0 L 219.5 607.8 Q 225.0 607.5 235.5 606.0 Q 246.0 604.5 247.5 604.2 L 249.0 604.0 L 250.0 606.2 Q 251.0 608.5 252.2 609.2 Q 253.5 610.0 253.8 610.2 L 254.0 610.5 L 255.0 611.0 L 256.0 611.5 L 261.0 611.5 L 266.0 611.5 L 266.2 611.2 L 266.5 611.0 L 266.8 610.8 Q 267.0 610.5 268.2 609.2 Q 269.5 608.0 270.8 603.5 L 272.0 599.0 L 272.2 599.0 L 272.5 599.0 L 272.8 599.2 L 273.0 599.5 L 288.0 597.5 Q 303.0 595.5 305.5 595.2 L 308.0 595.0 L 309.0 594.8 L 310.0 594.5 L 313.0 594.0 L 316.0 593.5 L 367.5 586.0 Q 419.0 578.5 422.0 578.2 z  M 266.0 675.0 L 263.0 674.5 L 261.0 674.2 L 259.0 674.0 L 259.2 673.0 L 259.5 672.0 L 259.8 671.8 L 260.0 671.5 L 260.2 671.2 L 260.5 671.0 L 260.8 670.8 L 261.0 670.5 L 261.2 670.2 L 261.5 670.0 L 261.8 669.8 L 262.0 669.5 L 262.2 669.2 L 262.5 669.0 L 262.8 668.8 L 263.0 668.5 L 263.2 668.2 L 263.5 668.0 L 263.8 667.8 Q 264.0 667.5 270.0 661.5 Q 276.0 655.5 289.0 647.0 L 302.0 638.5 L 303.0 638.0 L 304.0 637.5 L 304.2 637.2 L 304.5 637.0 L 304.8 636.8 L 305.0 636.5 L 306.0 636.0 L 307.0 635.5 L 307.2 635.2 L 307.5 635.0 L 307.8 634.8 L 308.0 634.5 L 295.5 635.0 Q 283.0 635.5 271.5 642.5 Q 260.0 649.5 260.8 650.2 Q 261.5 651.0 252.2 659.8 Q 243.0 668.5 236.8 665.8 Q 230.5 663.0 228.0 660.5 Q 225.5 658.0 225.5 652.5 Q 225.5 647.0 229.2 642.2 Q 233.0 637.5 243.0 631.5 Q 253.0 625.5 274.5 618.0 Q 296.0 610.5 325.0 604.5 Q 354.0 598.5 376.5 596.0 Q 399.0 593.5 430.5 593.5 Q 462.0 593.5 480.0 596.5 Q 498.0 599.5 508.0 604.5 Q 518.0 609.5 519.8 612.2 Q 521.5 615.0 520.8 620.2 Q 520.0 625.5 514.0 631.5 Q 508.0 637.5 496.0 643.5 Q 484.0 649.5 467.0 655.0 Q 450.0 660.5 421.0 666.5 Q 392.0 672.5 368.5 675.0 Q 345.0 677.5 310.5 677.0 Q 276.0 676.5 272.5 676.0 Q 269.0 675.5 266.0 675.0 z  M 165.0 721.5 L 158.0 719.5 L 157.8 719.2 L 157.5 719.0 L 157.2 718.8 L 157.0 718.5 L 156.8 718.2 L 156.5 718.0 L 156.2 717.8 L 156.0 717.5 L 155.8 717.2 L 155.5 717.0 L 155.0 716.0 L 154.5 715.0 L 154.5 714.0 L 154.5 713.0 L 155.0 712.0 L 155.5 711.0 L 156.0 710.0 L 156.5 709.0 L 156.8 708.8 Q 157.0 708.5 158.2 707.2 Q 159.5 706.0 169.2 700.8 Q 179.0 695.5 199.0 690.5 L 219.0 685.5 L 221.0 685.2 L 223.0 685.0 L 223.0 686.0 L 223.0 687.0 L 222.0 687.2 L 221.0 687.5 L 220.8 687.8 L 220.5 688.0 L 220.2 688.2 L 220.0 688.5 L 219.8 688.8 L 219.5 689.0 L 219.2 689.2 L 219.0 689.5 L 218.8 689.8 L 218.5 690.0 L 218.2 690.2 L 218.0 690.5 L 217.8 690.8 L 217.5 691.0 L 209.8 697.5 Q 202.0 704.0 202.0 705.0 Q 202.0 706.0 200.8 706.5 Q 199.5 707.0 199.2 707.2 L 199.0 707.5 L 198.8 707.8 L 198.5 708.0 L 198.2 708.2 L 198.0 708.5 L 197.8 708.8 L 197.5 709.0 L 197.2 709.2 L 197.0 709.5 L 196.8 709.8 L 196.5 710.0 L 196.2 710.2 L 196.0 710.5 L 195.8 710.8 L 195.5 711.0 L 195.2 711.2 L 195.0 711.5 L 194.8 711.8 L 194.5 712.0 L 194.2 712.2 L 194.0 712.5 L 193.8 712.8 L 193.5 713.0 L 193.2 713.2 L 193.0 713.5 L 199.5 713.5 Q 206.0 713.5 211.5 713.0 Q 217.0 712.5 231.5 698.5 Q 246.0 684.5 254.0 684.5 Q 262.0 684.5 266.8 686.8 Q 271.5 689.0 271.5 693.0 Q 271.5 697.0 266.5 701.0 Q 261.5 705.0 249.2 710.2 Q 237.0 715.5 220.0 719.0 Q 203.0 722.5 187.5 723.0 Q 172.0 723.5 165.0 721.5 z  "
     id="path16" />
  <path
     style="opacity:1;fill:#FEFEFE;fill-rule:evenodd;stroke:#FEFEFE;stroke-width:0.5px;stroke-linecap:butt;stroke-linejoin:miter;stroke-opacity:1;"
     d="M 317.0 407.5 L 316.5 409.0 L 316.2 410.0 L 316.0 411.0 L 307.8 423.0 Q 299.5 435.0 294.0 453.5 Q 288.5 472.0 283.0 480.5 Q 277.5 489.0 272.0 494.5 Q 266.5 500.0 265.5 503.5 Q 264.5 507.0 265.0 516.5 Q 265.5 526.0 268.2 529.8 Q 271.0 533.5 275.8 538.8 Q 280.5 544.0 280.8 545.0 Q 281.0 546.0 291.2 550.0 Q 301.5 554.0 313.2 558.8 Q 325.0 563.5 328.0 564.0 Q 331.0 564.5 332.5 565.0 L 334.0 565.5 L 334.2 565.8 L 334.5 566.0 L 334.8 566.2 L 335.0 566.5 L 335.2 566.8 L 335.5 567.0 L 335.8 567.2 L 336.0 567.5 L 336.2 567.8 L 336.5 568.0 L 336.5 571.5 L 336.5 575.0 L 336.0 576.5 L 335.5 578.0 L 335.2 578.2 L 335.0 578.5 L 334.8 578.8 L 334.5 579.0 L 334.2 579.2 L 334.0 579.5 L 333.0 580.0 Q 332.0 580.5 331.0 581.0 Q 330.0 581.5 320.5 582.0 Q 311.0 582.5 306.5 580.0 Q 302.0 577.5 287.0 576.8 L 272.0 576.0 L 272.2 578.5 Q 272.5 581.0 272.5 589.5 L 272.5 598.0 L 272.2 598.5 L 272.0 599.0 L 270.8 603.5 Q 269.5 608.0 268.2 609.2 Q 267.0 610.5 266.8 610.8 L 266.5 611.0 L 266.2 611.2 L 266.0 611.5 L 261.0 611.5 L 256.0 611.5 L 255.0 611.0 L 254.0 610.5 L 253.8 610.2 Q 253.5 610.0 252.2 609.2 Q 251.0 608.5 250.0 606.2 L 249.0 604.0 L 248.8 600.0 Q 248.5 596.0 246.5 586.5 L 244.5 577.0 L 244.2 576.8 L 244.0 576.5 L 241.5 576.5 L 239.0 576.5 L 235.5 576.8 L 232.0 577.0 L 225.2 589.0 Q 218.5 601.0 218.0 602.0 L 217.5 603.0 L 217.0 604.0 L 216.5 605.0 L 216.2 605.2 L 216.0 605.5 L 215.8 605.8 L 215.5 606.0 L 215.2 606.2 L 215.0 606.5 L 214.8 606.8 Q 214.5 607.0 214.2 607.5 L 214.0 608.0 L 206.0 618.8 Q 198.0 629.5 197.5 630.0 Q 197.0 630.5 191.0 630.5 L 185.0 630.5 L 184.8 630.2 L 184.5 630.0 L 184.2 629.8 L 184.0 629.5 L 183.8 629.2 L 183.5 629.0 L 183.0 628.0 Q 182.5 627.0 183.0 621.0 L 183.5 615.0 L 184.0 614.0 L 184.5 613.0 L 184.8 612.8 L 185.0 612.5 L 183.0 612.2 L 181.0 612.0 L 180.8 613.0 L 180.5 614.0 L 180.2 614.2 L 180.0 614.5 L 179.8 614.8 L 179.5 615.0 L 179.2 615.2 L 179.0 615.5 L 178.8 615.8 L 178.5 616.0 L 178.2 616.2 L 178.0 616.5 L 177.8 616.8 L 177.5 617.0 L 173.5 621.5 Q 169.5 626.0 164.5 634.5 Q 159.5 643.0 159.2 643.2 L 159.0 643.5 L 158.0 644.0 L 157.0 644.5 L 153.5 644.5 L 150.0 644.5 L 149.0 644.0 L 148.0 643.5 L 147.8 643.2 L 147.5 643.0 L 147.0 642.0 L 146.5 641.0 L 146.2 640.8 L 146.0 640.5 L 146.2 640.2 L 146.5 640.0 L 147.0 635.5 Q 147.5 631.0 148.5 628.0 L 149.5 625.0 L 149.8 624.8 L 150.0 624.5 L 150.0 624.2 L 150.0 624.0 L 150.2 623.5 Q 150.5 623.0 151.0 622.0 L 151.5 621.0 L 151.8 620.8 L 152.0 620.5 L 152.2 620.2 L 152.5 620.0 L 152.8 618.5 L 153.0 617.0 L 150.5 617.2 L 148.0 617.5 L 144.5 618.0 Q 141.0 618.5 140.0 618.8 L 139.0 619.0 L 137.0 619.2 L 135.0 619.5 L 131.0 620.0 Q 127.0 620.5 120.5 621.2 L 114.0 622.0 L 113.5 621.8 L 113.0 621.5 L 112.8 621.2 L 112.5 621.0 L 112.2 620.8 L 112.0 620.5 L 111.8 620.2 L 111.5 620.0 L 111.0 619.0 L 110.5 618.0 L 110.2 617.8 L 110.0 617.5 L 110.2 617.2 L 110.5 617.0 L 111.0 615.5 L 111.5 614.0 L 111.8 613.8 L 112.0 613.5 L 112.2 613.2 L 112.5 613.0 L 112.8 612.8 L 113.0 612.5 L 113.2 612.2 Q 113.5 612.0 122.2 603.2 Q 131.0 594.5 136.0 591.0 Q 141.0 587.5 145.8 581.8 Q 150.5 576.0 157.8 572.0 Q 165.0 568.0 175.2 551.0 Q 185.5 534.0 192.0 527.0 Q 198.5 520.0 202.0 507.5 Q 205.5 495.0 206.0 485.0 Q 206.5 475.0 208.0 459.5 Q 209.5 444.0 215.0 432.0 Q 220.5 420.0 223.8 416.8 Q 227.0 413.5 234.8 406.8 Q 242.5 400.0 248.8 391.0 L 255.0 382.0 L 255.2 381.0 L 255.5 380.0 L 256.0 378.5 L 256.5 377.0 L 258.2 373.0 Q 260.0 369.0 267.5 367.2 Q 275.0 365.5 289.5 366.0 Q 304.0 366.5 311.0 370.5 Q 318.0 374.5 321.2 378.2 Q 324.5 382.0 321.0 394.0 Q 317.5 406.0 317.0 407.5 z  "
     id="path18" />
  <path
     style="opacity:1;fill:#FEFEFE;fill-rule:evenodd;stroke:#FEFEFE;stroke-width:0.5px;stroke-linecap:butt;stroke-linejoin:miter;stroke-opacity:1;"
     d="M 653.2 365.2 L 653.5 365.0 L 653.8 365.2 L 654.0 365.5 L 655.0 366.0 L 656.0 366.5 L 656.5 366.8 L 657.0 367.0 L 662.5 370.8 Q 668.0 374.5 687.5 383.0 Q 707.0 391.5 713.0 396.5 Q 719.0 401.5 725.8 405.2 Q 732.5 409.0 738.0 415.5 Q 743.5 422.0 746.2 426.8 Q 749.0 431.5 759.0 437.2 Q 769.0 443.0 773.0 448.2 Q 777.0 453.5 794.2 463.8 Q 811.5 474.0 821.0 480.0 Q 830.5 486.0 832.2 487.8 Q 834.0 489.5 840.0 492.5 Q 846.0 495.5 855.5 502.5 Q 865.0 509.5 874.0 514.0 Q 883.0 518.5 886.2 521.8 Q 889.5 525.0 889.8 526.0 Q 890.0 527.0 893.0 528.2 Q 896.0 529.5 897.0 530.0 L 898.0 530.5 L 898.2 530.8 L 898.5 531.0 L 898.8 533.5 L 899.0 536.0 L 899.0 536.2 L 899.0 536.5 L 898.0 537.0 L 897.0 537.5 L 896.8 537.8 L 896.5 538.0 L 896.2 538.2 L 896.0 538.5 L 895.0 539.0 L 894.0 539.5 L 894.0 539.8 L 894.0 540.0 L 891.0 539.8 Q 888.0 539.5 885.0 541.0 Q 882.0 542.5 874.5 543.0 Q 867.0 543.5 850.0 538.0 Q 833.0 532.5 807.0 532.5 Q 781.0 532.5 780.8 535.2 Q 780.5 538.0 776.2 541.8 L 772.0 545.5 L 771.0 546.0 L 770.0 546.5 L 767.0 546.5 L 764.0 546.5 L 763.0 546.2 L 762.0 546.0 L 761.8 544.5 L 761.5 543.0 L 761.2 539.5 L 761.0 536.0 L 761.2 536.0 Q 761.5 536.0 761.2 531.0 L 761.0 526.0 L 761.2 526.0 L 761.5 526.0 L 761.5 525.0 L 761.5 524.0 L 761.0 522.0 Q 760.5 520.0 757.5 514.5 Q 754.5 509.0 752.5 501.0 Q 750.5 493.0 747.2 484.5 Q 744.0 476.0 739.0 472.8 Q 734.0 469.5 721.0 466.0 Q 708.0 462.5 698.0 457.5 Q 688.0 452.5 681.5 446.5 Q 675.0 440.5 658.0 433.0 Q 641.0 425.5 632.0 421.2 L 623.0 417.0 L 622.8 416.0 L 622.5 415.0 L 623.0 403.5 Q 623.5 392.0 627.8 385.8 Q 632.0 379.5 640.5 373.5 Q 649.0 367.5 651.0 366.5 Q 653.0 365.5 653.2 365.2 z  "
     id="path20" />
  <path
     style="opacity:1;fill:#FEFEFE;fill-rule:evenodd;stroke:#FEFEFE;stroke-width:0.5px;stroke-linecap:butt;stroke-linejoin:miter;stroke-opacity:1;"
     d="M 502.0 261.2 L 501.0 261.0 L 501.0 260.8 Q 501.0 260.5 500.0 260.8 L 499.0 261.0 L 498.5 261.2 Q 498.0 261.5 498.0 261.8 L 498.0 262.0 L 497.8 263.5 Q 497.5 265.0 496.5 267.5 Q 495.5 270.0 492.2 269.8 Q 489.0 269.5 484.0 269.0 Q 479.0 268.5 469.2 266.2 Q 459.5 264.0 459.2 247.0 L 459.0 230.0 L 459.0 229.5 L 459.0 229.0 L 459.0 227.5 L 459.0 226.0 L 459.2 222.5 Q 459.5 219.0 461.2 209.0 L 463.0 199.0 L 463.0 198.5 L 463.0 198.0 L 463.5 197.8 Q 464.0 197.5 464.2 197.2 L 464.5 197.0 L 464.8 193.5 Q 465.0 190.0 472.5 189.2 Q 480.0 188.5 483.5 185.5 Q 487.0 182.5 489.2 179.2 Q 491.5 176.0 492.5 172.0 Q 493.5 168.0 493.0 160.0 Q 492.5 152.0 489.0 145.0 Q 485.5 138.0 484.2 136.8 Q 483.0 135.5 485.8 133.8 Q 488.5 132.0 488.5 129.0 Q 488.5 126.0 488.2 121.0 Q 488.0 116.0 489.0 116.0 Q 490.0 116.0 490.0 115.0 Q 490.0 114.0 491.0 114.0 Q 492.0 114.0 497.0 108.2 Q 502.0 102.5 505.5 99.5 Q 509.0 96.5 513.0 95.5 Q 517.0 94.5 525.0 91.5 Q 533.0 88.5 538.0 89.0 Q 543.0 89.5 547.5 94.0 Q 552.0 98.5 556.5 100.5 Q 561.0 102.5 561.8 102.8 Q 562.5 103.0 562.8 104.5 Q 563.0 106.0 567.0 105.5 Q 571.0 105.0 572.0 109.0 Q 573.0 113.0 575.2 113.0 Q 577.5 113.0 578.2 115.2 Q 579.0 117.5 581.2 119.8 Q 583.5 122.0 586.0 135.0 Q 588.5 148.0 587.8 150.2 Q 587.0 152.5 581.8 157.2 Q 576.5 162.0 573.5 177.0 Q 570.5 192.0 567.2 195.8 Q 564.0 199.5 563.0 199.8 Q 562.0 200.0 561.2 204.0 Q 560.5 208.0 561.5 215.0 Q 562.5 222.0 561.2 223.8 Q 560.0 225.5 556.0 226.5 Q 552.0 227.5 549.8 231.2 Q 547.5 235.0 546.8 238.8 Q 546.0 242.5 544.2 243.8 Q 542.5 245.0 541.2 248.2 Q 540.0 251.5 537.8 252.2 Q 535.5 253.0 534.0 259.0 Q 532.5 265.0 531.2 266.2 Q 530.0 267.5 524.0 267.0 Q 518.0 266.5 510.5 264.0 Q 503.0 261.5 502.0 261.2 z  "
     id="path22" />
  <path
     style="opacity:1;fill:#6a6a6a;fill-rule:evenodd;stroke:#6a6a6a;stroke-width:0.50000000000000000px;stroke-linecap:butt;stroke-linejoin:miter;stroke-opacity:1;fill-opacity:1"
     d="M 322.5 410.2 L 325.0 410.0 L 327.8 432.5 Q 330.5 455.0 331.5 482.0 Q 332.5 509.0 337.5 546.0 Q 342.5 583.0 342.2 585.2 Q 342.0 587.5 330.5 589.5 Q 319.0 591.5 315.0 592.0 L 311.0 592.5 L 309.5 592.8 L 308.0 593.0 L 308.0 594.0 L 308.0 595.0 L 305.5 595.2 Q 303.0 595.5 288.0 597.5 L 273.0 599.5 L 272.8 599.2 L 272.5 599.0 L 272.2 599.0 L 272.0 599.0 L 272.2 598.5 L 272.5 598.0 L 272.5 589.5 Q 272.5 581.0 272.2 578.5 L 272.0 576.0 L 287.0 576.8 Q 302.0 577.5 306.5 580.0 Q 311.0 582.5 320.5 582.0 Q 330.0 581.5 331.0 581.0 Q 332.0 580.5 333.0 580.0 L 334.0 579.5 L 334.2 579.2 L 334.5 579.0 L 334.8 578.8 L 335.0 578.5 L 335.2 578.2 L 335.5 578.0 L 336.0 576.5 L 336.5 575.0 L 336.5 571.5 L 336.5 568.0 L 336.2 567.8 L 336.0 567.5 L 335.8 567.2 L 335.5 567.0 L 335.2 566.8 L 335.0 566.5 L 334.8 566.2 L 334.5 566.0 L 334.2 565.8 L 334.0 565.5 L 332.5 565.0 Q 331.0 564.5 328.0 564.0 Q 325.0 563.5 313.2 558.8 Q 301.5 554.0 291.2 550.0 Q 281.0 546.0 280.8 545.0 Q 280.5 544.0 275.8 538.8 Q 271.0 533.5 268.2 529.8 Q 265.5 526.0 265.0 516.5 Q 264.5 507.0 265.5 503.5 Q 266.5 500.0 272.0 494.5 Q 277.5 489.0 283.0 480.5 Q 288.5 472.0 294.0 453.5 Q 299.5 435.0 307.8 423.0 L 316.0 411.0 L 316.0 411.2 L 316.0 411.5 L 318.0 411.0 Q 320.0 410.5 322.5 410.2 z  "
     id="path24" />
  <path
     style="opacity:1;fill:#5a5a5a;fill-rule:evenodd;stroke:#5a5a5a;stroke-width:0.50000000000000000px;stroke-linecap:butt;stroke-linejoin:miter;stroke-opacity:1;fill-opacity:1"
     d="M 144.5 618.0 L 148.0 617.5 L 150.5 617.2 L 153.0 617.0 L 152.8 618.5 L 152.5 620.0 L 152.2 620.2 L 152.0 620.5 L 151.8 620.8 L 151.5 621.0 L 151.0 622.0 Q 150.5 623.0 150.2 623.5 L 150.0 624.0 L 149.5 623.8 L 149.0 623.5 L 148.0 623.5 L 147.0 623.5 L 146.0 624.0 L 145.0 624.5 L 143.5 625.0 L 142.0 625.5 L 141.0 626.0 L 140.0 626.5 L 134.8 628.8 Q 129.5 631.0 129.0 638.0 Q 128.5 645.0 127.5 645.0 Q 126.5 645.0 127.0 648.0 Q 127.5 651.0 127.2 653.5 Q 127.0 656.0 128.0 656.0 Q 129.0 656.0 128.8 660.5 Q 128.5 665.0 129.2 665.5 Q 130.0 666.0 129.2 670.5 Q 128.5 675.0 129.8 681.0 Q 131.0 687.0 130.0 687.0 Q 129.0 687.0 128.8 692.0 Q 128.5 697.0 129.2 699.0 Q 130.0 701.0 131.0 701.0 Q 132.0 701.0 132.0 711.5 Q 132.0 722.0 130.5 722.8 Q 129.0 723.5 130.5 723.8 Q 132.0 724.0 132.0 726.0 Q 132.0 728.0 131.0 728.0 Q 130.0 728.0 130.0 730.0 Q 130.0 732.0 131.0 732.0 Q 132.0 732.0 132.5 735.0 Q 133.0 738.0 146.0 738.8 Q 159.0 739.5 209.5 729.0 Q 260.0 718.5 346.0 699.5 Q 432.0 680.5 433.5 680.2 L 435.0 680.0 L 435.0 680.2 L 435.0 680.5 L 438.5 681.0 L 442.0 681.5 L 441.0 681.8 L 440.0 682.0 L 440.2 683.0 L 440.5 684.0 L 440.8 684.2 L 441.0 684.5 L 440.8 684.8 L 440.5 685.0 L 440.2 685.5 L 440.0 686.0 L 439.0 686.2 L 438.0 686.5 L 435.5 687.0 Q 433.0 687.5 269.5 725.0 L 106.0 762.5 L 103.5 762.8 L 101.0 763.0 L 101.2 761.5 L 101.5 760.0 L 102.0 751.0 Q 102.5 742.0 106.0 684.0 Q 109.5 626.0 121.8 623.8 L 134.0 621.5 L 136.5 621.2 L 139.0 621.0 L 139.0 620.0 L 139.0 619.0 L 140.0 618.8 Q 141.0 618.5 144.5 618.0 z  "
     id="path26" />
  <path
     style="opacity:1;fill:#5a5a5a;fill-rule:evenodd;stroke:#5a5a5a;stroke-width:0.50000000000000000px;stroke-linecap:butt;stroke-linejoin:miter;stroke-opacity:1;fill-opacity:1"
     d="M 593.5 551.2 L 596.0 551.0 L 596.2 551.0 L 596.5 551.0 L 596.8 551.2 L 597.0 551.5 L 598.0 552.0 L 599.0 552.5 L 610.0 554.0 Q 621.0 555.5 654.5 565.5 Q 688.0 575.5 695.0 576.0 Q 702.0 576.5 714.2 580.2 Q 726.5 584.0 725.2 584.8 Q 724.0 585.5 734.0 588.5 Q 744.0 591.5 745.0 591.8 L 746.0 592.0 L 746.2 592.0 L 746.5 592.0 L 746.8 592.2 L 747.0 592.5 L 749.0 593.0 L 751.0 593.5 L 755.5 595.0 Q 760.0 596.5 762.0 597.0 L 764.0 597.5 L 765.0 598.0 L 766.0 598.5 L 766.2 598.8 L 766.5 599.0 L 766.8 599.2 L 767.0 599.5 L 767.2 599.8 L 767.5 600.0 L 767.8 600.2 L 768.0 600.5 L 768.2 600.8 L 768.5 601.0 L 768.5 602.0 L 768.5 603.0 L 768.2 603.2 L 768.0 603.5 L 767.8 603.8 L 767.5 604.0 L 767.2 604.2 L 767.0 604.5 L 766.0 605.0 L 765.0 605.5 L 764.0 606.0 L 763.0 606.5 L 761.0 607.0 Q 759.0 607.5 705.0 619.0 Q 651.0 630.5 643.5 632.0 Q 636.0 633.5 619.0 633.5 Q 602.0 633.5 557.0 612.5 Q 512.0 591.5 497.0 585.5 L 482.0 579.5 L 481.0 579.0 L 480.0 578.5 L 479.0 578.0 L 478.0 577.5 L 477.8 577.2 L 477.5 577.0 L 477.2 576.8 L 477.0 576.5 L 476.8 576.2 L 476.5 576.0 L 476.2 575.8 L 476.0 575.5 L 476.2 575.2 L 476.5 575.0 L 476.8 574.0 L 477.0 573.0 L 478.0 572.8 L 479.0 572.5 L 480.5 572.0 L 482.0 571.5 L 482.2 571.2 L 482.5 571.0 L 491.2 569.2 Q 500.0 567.5 499.0 567.0 Q 498.0 566.5 498.0 566.2 L 498.0 566.0 L 544.5 558.8 Q 591.0 551.5 593.5 551.2 z  M 697.2 576.8 Q 697.0 576.5 697.2 576.2 Q 697.5 576.0 697.5 576.5 Q 697.5 577.0 697.2 576.8 z  "
     id="path28" />
  <path
     style="opacity:1;fill:#5a5a5a;fill-rule:evenodd;stroke:#5a5a5a;stroke-width:0.50000000000000000px;stroke-linecap:butt;stroke-linejoin:miter;stroke-opacity:1;fill-opacity:1"
     d="M 337.0 640.0 L 336.0 639.5 L 335.0 639.0 L 334.0 638.5 L 333.0 638.0 L 332.0 637.5 L 331.8 637.2 L 331.5 637.0 L 331.5 634.0 L 331.5 631.0 L 331.8 630.8 L 332.0 630.5 L 332.2 630.2 L 332.5 630.0 L 332.8 629.8 L 333.0 629.5 L 333.2 629.2 L 333.5 629.0 L 333.8 628.8 L 334.0 628.5 L 342.5 625.0 Q 351.0 621.5 366.5 618.5 Q 382.0 615.5 400.0 616.0 Q 418.0 616.5 423.0 618.2 Q 428.0 620.0 427.8 623.5 Q 427.5 627.0 420.8 630.8 Q 414.0 634.5 398.5 638.0 Q 383.0 641.5 363.0 641.5 Q 343.0 641.5 340.5 641.0 Q 338.0 640.5 337.0 640.0 z  "
     id="path30" />
  <path
     style="opacity:1;fill:#5a5a5a;fill-rule:evenodd;stroke:#5a5a5a;stroke-width:0.50000000000000000px;stroke-linecap:butt;stroke-linejoin:miter;stroke-opacity:1;fill-opacity:1"
     d="M 758.0 526.2 L 761.0 526.0 L 761.2 531.0 Q 761.5 536.0 761.2 536.0 L 761.0 536.0 L 761.0 535.0 L 761.0 534.0 L 757.5 534.2 Q 754.0 534.5 745.0 536.0 Q 736.0 537.5 726.0 541.0 L 716.0 544.5 L 715.8 544.8 L 715.5 545.0 L 715.2 545.2 L 715.0 545.5 L 714.8 545.8 L 714.5 546.0 L 714.2 546.2 L 714.0 546.5 L 713.8 546.8 L 713.5 547.0 L 713.2 547.2 L 713.0 547.5 L 712.8 547.8 L 712.5 548.0 L 712.5 550.0 L 712.5 552.0 L 712.8 553.0 L 713.0 554.0 L 714.0 554.2 L 715.0 554.5 L 715.2 554.8 L 715.5 555.0 L 715.8 555.2 L 716.0 555.5 L 726.5 559.5 Q 737.0 563.5 744.0 565.0 Q 751.0 566.5 755.0 567.0 L 759.0 567.5 L 762.0 567.5 L 765.0 567.5 L 764.0 567.0 L 763.0 566.5 L 762.8 566.2 L 762.5 566.0 L 762.2 565.8 L 762.0 565.5 L 761.8 565.2 L 761.5 565.0 L 761.2 564.8 L 761.0 564.5 L 760.8 564.2 L 760.5 564.0 L 760.2 563.8 L 760.0 563.5 L 759.0 563.0 Q 758.0 562.5 757.8 562.2 Q 757.5 562.0 754.8 561.0 L 752.0 560.0 L 751.8 559.0 L 751.5 558.0 L 751.0 556.5 L 750.5 555.0 L 750.2 554.0 L 750.0 553.0 L 752.0 552.8 L 754.0 552.5 L 755.0 552.5 L 756.0 552.5 L 757.0 552.5 L 758.0 552.5 L 762.8 552.8 Q 767.5 553.0 768.8 556.8 Q 770.0 560.5 776.0 565.0 Q 782.0 569.5 785.0 570.0 Q 788.0 570.5 791.0 570.8 L 794.0 571.0 L 794.0 571.2 L 794.0 571.5 L 794.2 571.8 L 794.5 572.0 L 794.8 572.2 L 795.0 572.5 L 795.2 572.8 L 795.5 573.0 L 795.8 573.2 L 796.0 573.5 L 794.5 574.0 L 793.0 574.5 L 793.2 574.8 L 793.5 575.0 L 793.8 575.2 L 794.0 575.5 L 794.2 575.8 L 794.5 576.0 L 794.8 575.8 L 795.0 575.5 L 799.0 575.8 Q 803.0 576.0 802.0 577.8 Q 801.0 579.5 802.5 579.8 Q 804.0 580.0 804.0 581.0 L 804.0 582.0 L 806.0 582.0 L 808.0 582.0 L 808.2 583.0 L 808.5 584.0 L 808.8 584.2 L 809.0 584.5 L 809.2 584.8 L 809.5 585.0 L 809.8 585.2 L 810.0 585.5 L 809.0 585.5 L 808.0 585.5 L 807.8 585.2 L 807.5 585.0 L 807.2 585.2 L 807.0 585.5 L 806.0 586.0 L 805.0 586.5 L 801.5 586.8 Q 798.0 587.0 798.5 589.0 Q 799.0 591.0 794.0 591.0 L 789.0 591.0 L 789.0 592.0 L 789.0 593.0 L 791.5 593.2 L 794.0 593.5 L 794.2 593.8 L 794.5 594.0 L 794.8 594.2 L 795.0 594.5 L 798.0 595.0 L 801.0 595.5 L 802.5 596.0 L 804.0 596.5 L 804.0 596.8 L 804.0 597.0 L 803.0 597.2 L 802.0 597.5 L 790.5 597.5 Q 779.0 597.5 766.0 594.0 L 753.0 590.5 L 751.0 590.0 L 749.0 589.5 L 747.5 589.2 L 746.0 589.0 L 746.0 590.5 L 746.0 592.0 L 745.0 591.8 Q 744.0 591.5 734.0 588.5 Q 724.0 585.5 725.2 584.8 Q 726.5 584.0 716.8 580.8 Q 707.0 577.5 702.2 576.8 Q 697.5 576.0 696.2 576.2 Q 695.0 576.5 658.0 566.0 Q 621.0 555.5 610.0 554.0 L 599.0 552.5 L 598.0 552.0 L 597.0 551.5 L 596.8 551.2 L 596.5 551.0 L 596.2 551.0 L 596.0 551.0 L 596.0 550.8 L 596.0 550.5 L 599.5 550.0 L 603.0 549.5 L 604.5 549.2 L 606.0 549.0 L 618.0 546.8 Q 630.0 544.5 646.5 542.5 Q 663.0 540.5 709.0 533.5 Q 755.0 526.5 758.0 526.2 z  "
     id="path32" />
  <path
     style="opacity:1;fill:#FEFEFD;fill-rule:evenodd;stroke:#FEFEFD;stroke-width:0.5px;stroke-linecap:butt;stroke-linejoin:miter;stroke-opacity:1;"
     d="M 489.0 84.0 L 495.0 83.5 L 497.5 83.5 L 500.0 83.5 L 500.2 83.8 L 500.5 84.0 L 500.5 85.0 L 500.5 86.0 L 500.2 87.5 L 500.0 89.0 L 499.0 89.2 L 498.0 89.5 L 497.8 89.8 L 497.5 90.0 L 497.2 90.2 L 497.0 90.5 L 496.0 91.0 Q 495.0 91.5 493.0 92.8 Q 491.0 94.0 491.0 95.0 Q 491.0 96.0 490.0 96.0 Q 489.0 96.0 489.0 97.0 Q 489.0 98.0 488.0 98.0 Q 487.0 98.0 487.0 99.0 Q 487.0 100.0 486.0 100.0 Q 485.0 100.0 482.0 105.0 Q 479.0 110.0 478.0 110.0 Q 477.0 110.0 476.2 112.0 Q 475.5 114.0 471.8 115.5 Q 468.0 117.0 467.8 118.0 Q 467.5 119.0 467.2 122.2 Q 467.0 125.5 468.2 127.8 Q 469.5 130.0 461.8 134.2 Q 454.0 138.5 450.8 143.2 Q 447.5 148.0 447.0 158.5 Q 446.5 169.0 449.2 175.0 Q 452.0 181.0 453.0 181.2 Q 454.0 181.5 456.0 183.8 Q 458.0 186.0 459.2 186.5 Q 460.5 187.0 460.8 191.5 Q 461.0 196.0 462.0 196.0 Q 463.0 196.0 463.0 197.0 L 463.0 198.0 L 462.5 198.2 L 462.0 198.5 L 462.5 198.8 L 463.0 199.0 L 461.2 209.0 Q 459.5 219.0 459.2 222.5 L 459.0 226.0 L 458.8 227.0 Q 458.5 228.0 458.8 228.5 L 459.0 229.0 L 459.0 229.5 L 459.0 230.0 L 458.0 230.0 Q 457.0 230.0 456.8 233.0 Q 456.5 236.0 456.5 249.0 L 456.5 262.0 L 456.5 263.0 L 456.5 264.0 L 456.2 263.8 L 456.0 263.5 L 454.0 263.0 L 452.0 262.5 L 450.0 262.0 Q 448.0 261.5 422.5 253.0 L 397.0 244.5 L 396.8 244.2 L 396.5 244.0 L 396.2 243.8 L 396.0 243.5 L 395.8 243.2 L 395.5 243.0 L 395.2 242.8 L 395.0 242.5 L 394.8 242.2 L 394.5 242.0 L 394.2 241.8 L 394.0 241.5 L 393.8 241.2 L 393.5 241.0 L 393.2 240.8 L 393.0 240.5 L 392.8 240.2 L 392.5 240.0 L 392.2 239.8 L 392.0 239.5 L 392.0 239.2 L 392.0 239.0 L 392.0 238.8 L 392.0 238.5 L 392.2 238.2 L 392.5 238.0 L 392.8 237.8 L 393.0 237.5 L 394.0 237.0 L 395.0 236.5 L 395.2 236.2 L 395.5 236.0 L 395.8 235.8 L 396.0 235.5 L 414.8 222.2 Q 433.5 209.0 436.0 204.5 Q 438.5 200.0 438.8 196.5 Q 439.0 193.0 436.5 193.0 Q 434.0 193.0 433.2 174.0 Q 432.5 155.0 434.5 151.0 Q 436.5 147.0 438.5 143.5 Q 440.5 140.0 441.0 134.0 Q 441.5 128.0 444.5 123.5 Q 447.5 119.0 448.8 114.8 Q 450.0 110.5 451.0 110.2 Q 452.0 110.0 451.8 108.0 Q 451.5 106.0 453.8 102.5 Q 456.0 99.0 460.5 98.2 Q 465.0 97.5 467.0 95.5 Q 469.0 93.5 470.5 93.2 Q 472.0 93.0 472.0 91.5 Q 472.0 90.0 474.0 89.5 Q 476.0 89.0 477.5 87.2 Q 479.0 85.5 481.0 85.0 Q 483.0 84.5 489.0 84.0 z  "
     id="path34" />
  <path
     style="opacity:1;fill:#5a5a5a;fill-rule:evenodd;stroke:#5a5a5a;stroke-width:0.50000000000000000px;stroke-linecap:butt;stroke-linejoin:miter;stroke-opacity:1;fill-opacity:1"
     d="M 497.0 566.2 L 498.0 566.0 L 498.0 566.2 Q 498.0 566.5 499.0 567.0 Q 500.0 567.5 491.2 569.2 L 482.5 571.0 L 482.2 571.2 L 482.0 571.5 L 480.5 572.0 L 479.0 572.5 L 478.0 572.8 L 477.0 573.0 L 476.8 574.0 L 476.5 575.0 L 476.2 575.2 L 476.0 575.5 L 476.2 575.8 L 476.5 576.0 L 476.8 576.2 L 477.0 576.5 L 477.2 576.8 L 477.5 577.0 L 477.8 577.2 L 478.0 577.5 L 479.0 578.0 L 480.0 578.5 L 481.0 579.0 L 482.0 579.5 L 497.0 585.5 Q 512.0 591.5 557.0 612.5 Q 602.0 633.5 619.0 633.5 Q 636.0 633.5 643.5 632.0 Q 651.0 630.5 705.0 619.0 Q 759.0 607.5 761.0 607.0 L 763.0 606.5 L 764.0 606.0 L 765.0 605.5 L 766.0 605.0 L 767.0 604.5 L 767.2 604.2 L 767.5 604.0 L 767.8 603.8 L 768.0 603.5 L 768.2 603.2 L 768.5 603.0 L 768.5 602.0 L 768.5 601.0 L 768.2 600.8 L 768.0 600.5 L 767.8 600.2 L 767.5 600.0 L 767.2 599.8 L 767.0 599.5 L 766.8 599.2 L 766.5 599.0 L 766.2 598.8 L 766.0 598.5 L 765.0 598.0 L 764.0 597.5 L 762.0 597.0 Q 760.0 596.5 755.5 595.0 L 751.0 593.5 L 749.0 593.0 L 747.0 592.5 L 746.8 592.2 L 746.5 592.0 L 746.2 592.0 L 746.0 592.0 L 746.0 590.5 L 746.0 589.0 L 747.5 589.2 L 749.0 589.5 L 751.0 590.0 L 753.0 590.5 L 766.0 594.0 Q 779.0 597.5 790.5 597.5 L 802.0 597.5 L 803.0 597.2 L 804.0 597.0 L 810.0 595.8 Q 816.0 594.5 819.0 594.0 L 822.0 593.5 L 823.5 593.2 L 825.0 593.0 L 825.2 594.0 L 825.5 595.0 L 825.8 596.0 L 826.0 597.0 L 826.0 597.2 L 826.0 597.5 L 824.0 598.0 L 822.0 598.5 L 819.5 599.0 Q 817.0 599.5 628.5 642.8 L 440.0 686.0 L 440.2 685.5 L 440.5 685.0 L 440.8 684.8 L 441.0 684.5 L 440.8 684.2 L 440.5 684.0 L 440.2 683.0 L 440.0 682.0 L 441.0 681.8 L 442.0 681.5 L 438.5 681.0 L 435.0 680.5 L 435.0 680.2 L 435.0 680.0 L 435.5 679.8 L 436.0 679.5 L 438.0 679.0 L 440.0 678.5 L 488.0 667.5 Q 536.0 656.5 558.0 651.0 Q 580.0 645.5 581.5 645.0 L 583.0 644.5 L 583.2 644.2 L 583.5 644.0 L 583.8 643.8 L 584.0 643.5 L 584.2 643.2 L 584.5 643.0 L 584.8 642.8 L 585.0 642.5 L 585.2 642.2 L 585.5 642.0 L 585.5 640.0 L 585.5 638.0 L 585.2 637.8 L 585.0 637.5 L 584.8 637.2 L 584.5 637.0 L 584.2 636.8 L 584.0 636.5 L 583.0 636.0 L 582.0 635.5 L 581.8 635.2 L 581.5 635.0 L 581.2 634.8 Q 581.0 634.5 524.5 607.0 Q 468.0 579.5 447.5 579.5 L 427.0 579.5 L 426.0 579.8 L 425.0 580.0 L 425.0 579.0 L 425.0 578.0 L 425.0 577.8 L 425.0 577.5 L 428.5 577.0 L 432.0 576.5 L 464.0 571.5 Q 496.0 566.5 497.0 566.2 z  "
     id="path36" />
  <path
     style="opacity:1;fill:#6a6a6a;fill-rule:evenodd;stroke:#6a6a6a;stroke-width:0.50000000000000000px;stroke-linecap:butt;stroke-linejoin:miter;stroke-opacity:1;fill-opacity:1"
     d="M 235.5 576.8 L 239.0 576.5 L 241.5 576.5 L 244.0 576.5 L 244.2 576.8 L 244.5 577.0 L 246.5 586.5 Q 248.5 596.0 248.8 600.0 L 249.0 604.0 L 247.5 604.2 Q 246.0 604.5 235.5 606.0 Q 225.0 607.5 219.5 607.8 L 214.0 608.0 L 214.2 607.5 Q 214.5 607.0 214.8 606.8 L 215.0 606.5 L 215.2 606.2 L 215.5 606.0 L 215.8 605.8 L 216.0 605.5 L 216.2 605.2 L 216.5 605.0 L 217.0 604.0 L 217.5 603.0 L 218.0 602.0 Q 218.5 601.0 225.2 589.0 L 232.0 577.0 L 235.5 576.8 z  "
     id="path38" />
  <path
     style="opacity:1;fill:#5a5a5a;fill-rule:evenodd;stroke:#5a5a5a;stroke-width:0.50000000000000000px;stroke-linecap:butt;stroke-linejoin:miter;stroke-opacity:1;fill-opacity:1"
     d="M 899.0 536.2 L 899.0 536.0 L 911.0 537.2 Q 923.0 538.5 923.0 538.2 L 923.0 538.0 L 956.0 543.2 Q 989.0 548.5 990.0 548.8 L 991.0 549.0 L 997.0 550.8 Q 1003.0 552.5 1006.5 553.0 L 1010.0 553.5 L 1011.0 554.0 L 1012.0 554.5 L 1010.5 555.0 L 1009.0 555.5 L 1006.5 556.0 L 1004.0 556.5 L 1002.5 557.0 Q 1001.0 557.5 913.5 577.2 L 826.0 597.0 L 825.8 596.0 L 825.5 595.0 L 825.2 594.0 L 825.0 593.0 L 823.5 593.2 L 822.0 593.5 L 819.0 594.0 Q 816.0 594.5 810.0 595.8 L 804.0 597.0 L 804.0 596.8 L 804.0 596.5 L 802.5 596.5 Q 801.0 596.5 800.0 596.8 Q 799.0 597.0 799.0 596.0 Q 799.0 595.0 797.0 594.8 L 795.0 594.5 L 794.8 594.2 L 794.5 594.0 L 794.2 593.8 L 794.0 593.5 L 791.5 593.2 L 789.0 593.0 L 789.0 592.0 L 789.0 591.0 L 794.0 591.0 Q 799.0 591.0 798.5 589.0 Q 798.0 587.0 801.5 586.8 L 805.0 586.5 L 806.0 586.0 L 807.0 585.5 L 807.2 585.2 L 807.5 585.0 L 807.8 585.2 L 808.0 585.5 L 809.0 585.5 L 810.0 585.5 L 809.8 585.2 L 809.5 585.0 L 809.2 584.8 L 809.0 584.5 L 808.8 584.2 L 808.5 584.0 L 808.2 583.0 L 808.0 582.0 L 805.0 582.0 Q 802.0 582.0 802.0 579.2 Q 802.0 576.5 798.5 576.0 L 795.0 575.5 L 794.8 575.8 L 794.5 576.0 L 794.2 575.8 L 794.0 575.5 L 793.8 575.2 L 793.5 575.0 L 793.2 574.8 L 793.0 574.5 L 794.5 574.0 L 796.0 573.5 L 795.8 573.2 L 795.5 573.0 L 795.2 572.8 L 795.0 572.5 L 794.8 572.2 L 794.5 572.0 L 794.2 571.8 L 794.0 571.5 L 794.0 571.2 L 794.0 571.0 L 827.5 570.8 Q 861.0 570.5 881.5 567.5 Q 902.0 564.5 909.0 562.0 Q 916.0 559.5 917.0 559.0 L 918.0 558.5 L 918.2 558.2 L 918.5 558.0 L 918.8 557.8 L 919.0 557.5 L 919.2 557.2 L 919.5 557.0 L 919.8 556.8 L 920.0 556.5 L 920.2 556.2 L 920.5 556.0 L 921.0 555.0 L 921.5 554.0 L 921.5 553.0 L 921.5 552.0 L 921.0 551.0 L 920.5 550.0 L 920.2 549.8 L 920.0 549.5 L 919.8 549.2 L 919.5 549.0 L 919.2 548.8 L 919.0 548.5 L 918.0 548.0 Q 917.0 547.5 908.0 544.0 L 899.0 540.5 L 896.5 540.2 L 894.0 540.0 L 894.0 539.8 L 894.0 539.5 L 895.0 539.0 L 896.0 538.5 L 896.2 538.2 L 896.5 538.0 L 896.8 537.8 L 897.0 537.5 L 898.0 537.0 L 899.0 536.5 L 899.0 536.2 z  "
     id="path40" />
  <path
     style="opacity:1;fill:#070803;fill-rule:evenodd;stroke:#070803;stroke-width:0.5px;stroke-linecap:butt;stroke-linejoin:miter;stroke-opacity:1;"
     d="M 891.0 539.8 L 894.0 540.0 L 896.5 540.2 L 899.0 540.5 L 908.0 544.0 Q 917.0 547.5 918.0 548.0 L 919.0 548.5 L 919.2 548.8 L 919.5 549.0 L 919.8 549.2 L 920.0 549.5 L 920.2 549.8 L 920.5 550.0 L 921.0 551.0 L 921.5 552.0 L 921.5 553.0 L 921.5 554.0 L 921.0 555.0 L 920.5 556.0 L 920.2 556.2 L 920.0 556.5 L 919.8 556.8 L 919.5 557.0 L 919.2 557.2 L 919.0 557.5 L 918.8 557.8 L 918.5 558.0 L 918.2 558.2 L 918.0 558.5 L 917.0 559.0 Q 916.0 559.5 909.0 562.0 Q 902.0 564.5 881.5 567.5 Q 861.0 570.5 827.5 570.8 L 794.0 571.0 L 791.0 570.8 Q 788.0 570.5 785.0 570.0 Q 782.0 569.5 776.0 565.0 Q 770.0 560.5 768.8 556.8 Q 767.5 553.0 762.8 552.8 L 758.0 552.5 L 757.0 552.5 L 756.0 552.5 L 755.0 552.5 L 754.0 552.5 L 752.0 552.8 L 750.0 553.0 L 750.2 554.0 L 750.5 555.0 L 751.0 556.5 L 751.5 558.0 L 751.8 559.0 L 752.0 560.0 L 754.8 561.0 Q 757.5 562.0 757.8 562.2 Q 758.0 562.5 759.0 563.0 L 760.0 563.5 L 760.2 563.8 L 760.5 564.0 L 760.8 564.2 L 761.0 564.5 L 761.2 564.8 L 761.5 565.0 L 761.8 565.2 L 762.0 565.5 L 762.2 565.8 L 762.5 566.0 L 762.8 566.2 L 763.0 566.5 L 764.0 567.0 L 765.0 567.5 L 762.0 567.5 L 759.0 567.5 L 755.0 567.0 Q 751.0 566.5 744.0 565.0 Q 737.0 563.5 726.5 559.5 L 716.0 555.5 L 715.8 555.2 L 715.5 555.0 L 715.2 554.8 L 715.0 554.5 L 714.0 554.2 L 713.0 554.0 L 712.8 553.0 L 712.5 552.0 L 712.5 550.0 L 712.5 548.0 L 712.8 547.8 L 713.0 547.5 L 713.2 547.2 L 713.5 547.0 L 713.8 546.8 L 714.0 546.5 L 714.2 546.2 L 714.5 546.0 L 714.8 545.8 L 715.0 545.5 L 715.2 545.2 L 715.5 545.0 L 715.8 544.8 L 716.0 544.5 L 726.0 541.0 Q 736.0 537.5 745.0 536.0 Q 754.0 534.5 757.5 534.2 L 761.0 534.0 L 761.0 535.0 L 761.0 536.0 L 761.2 539.5 L 761.5 543.0 L 761.8 544.5 L 762.0 546.0 L 763.0 546.2 L 764.0 546.5 L 767.0 546.5 L 770.0 546.5 L 771.0 546.0 L 772.0 545.5 L 776.2 541.8 Q 780.5 538.0 780.8 535.2 Q 781.0 532.5 807.0 532.5 Q 833.0 532.5 850.0 538.0 Q 867.0 543.5 874.5 543.0 Q 882.0 542.5 885.0 541.0 Q 888.0 539.5 891.0 539.8 z  "
     id="path42" />
  <path
     style="opacity:1;fill:#070802;fill-rule:evenodd;stroke:#070802;stroke-width:0.5px;stroke-linecap:butt;stroke-linejoin:miter;stroke-opacity:1;"
     d="M 165.0 721.5 L 158.0 719.5 L 157.8 719.2 L 157.5 719.0 L 157.2 718.8 L 157.0 718.5 L 156.8 718.2 L 156.5 718.0 L 156.2 717.8 L 156.0 717.5 L 155.8 717.2 L 155.5 717.0 L 155.0 716.0 L 154.5 715.0 L 154.5 714.0 L 154.5 713.0 L 155.0 712.0 L 155.5 711.0 L 156.0 710.0 L 156.5 709.0 L 156.8 708.8 Q 157.0 708.5 158.2 707.2 Q 159.5 706.0 169.2 700.8 Q 179.0 695.5 199.0 690.5 L 219.0 685.5 L 221.0 685.2 L 223.0 685.0 L 223.0 686.0 L 223.0 687.0 L 222.0 687.2 L 221.0 687.5 L 220.8 687.8 L 220.5 688.0 L 220.2 688.2 L 220.0 688.5 L 219.8 688.8 L 219.5 689.0 L 219.2 689.2 L 219.0 689.5 L 218.8 689.8 L 218.5 690.0 L 218.2 690.2 L 218.0 690.5 L 217.8 690.8 L 217.5 691.0 L 209.8 697.5 Q 202.0 704.0 202.0 705.0 Q 202.0 706.0 200.8 706.5 Q 199.5 707.0 199.2 707.2 L 199.0 707.5 L 198.8 707.8 L 198.5 708.0 L 198.2 708.2 L 198.0 708.5 L 197.8 708.8 L 197.5 709.0 L 197.2 709.2 L 197.0 709.5 L 196.8 709.8 L 196.5 710.0 L 196.2 710.2 L 196.0 710.5 L 195.8 710.8 L 195.5 711.0 L 195.2 711.2 L 195.0 711.5 L 194.8 711.8 L 194.5 712.0 L 194.2 712.2 L 194.0 712.5 L 193.8 712.8 L 193.5 713.0 L 193.2 713.2 L 193.0 713.5 L 199.5 713.5 Q 206.0 713.5 211.5 713.0 Q 217.0 712.5 231.5 698.5 Q 246.0 684.5 254.0 684.5 Q 262.0 684.5 266.8 686.8 Q 271.5 689.0 271.5 693.0 Q 271.5 697.0 266.5 701.0 Q 261.5 705.0 249.2 710.2 Q 237.0 715.5 220.0 719.0 Q 203.0 722.5 187.5 723.0 Q 172.0 723.5 165.0 721.5 z  "
     id="path44" />
</svg>
