<?xml version="1.0" encoding="UTF-8" standalone="no"?>
<!-- Generator: Adobe Illustrator 15.1.0, SVG Export Plug-In . SVG Version: 6.00 Build 0)  -->

<svg
   xmlns:dc="http://purl.org/dc/elements/1.1/"
   xmlns:cc="http://creativecommons.org/ns#"
   xmlns:rdf="http://www.w3.org/1999/02/22-rdf-syntax-ns#"
   xmlns:svg="http://www.w3.org/2000/svg"
   xmlns="http://www.w3.org/2000/svg"
   xmlns:sodipodi="http://sodipodi.sourceforge.net/DTD/sodipodi-0.dtd"
   xmlns:inkscape="http://www.inkscape.org/namespaces/inkscape"
   version="1.1"
   id="Layer_1"
   x="0px"
   y="0px"
   width="500px"
   height="500px"
   viewBox="0 0 500 500"
   enable-background="new 0 0 500 500"
   xml:space="preserve"
   inkscape:version="0.48.4 r9939"
   sodipodi:docname="sad_face.svg"><metadata
     id="metadata19"><rdf:RDF><cc:Work
         rdf:about=""><dc:format>image/svg+xml</dc:format><dc:type
           rdf:resource="http://purl.org/dc/dcmitype/StillImage" /></cc:Work></rdf:RDF></metadata><defs
     id="defs17" /><sodipodi:namedview
     pagecolor="#ffffff"
     bordercolor="#666666"
     borderopacity="1"
     objecttolerance="10"
     gridtolerance="10"
     guidetolerance="10"
     inkscape:pageopacity="0"
     inkscape:pageshadow="2"
     inkscape:window-width="1366"
     inkscape:window-height="768"
     id="namedview15"
     showgrid="false"
     inkscape:zoom="0.944"
     inkscape:cx="243.67578"
     inkscape:cy="199.34408"
     inkscape:window-x="0"
     inkscape:window-y="0"
     inkscape:window-maximized="0"
     inkscape:current-layer="g3" /><g
     id="g3"
     style="fill:#000000"><path
       d="M249.625,4.5c-135.311,0-245,109.69-245,245c0,135.311,109.69,245.001,245,245.001   c135.309,0,245-109.69,245-245.001C494.625,114.19,384.934,4.5,249.625,4.5z M249.625,474.131   c-123.861,0-224.631-100.77-224.631-224.631c0-123.862,100.77-224.631,224.631-224.631c123.862,0,224.63,100.769,224.63,224.631   C474.255,373.361,373.487,474.131,249.625,474.131z"
       id="path5"
       fill="#666666"
       style="fill:#000000" /><path
       d="M249.77,304.385c-48.317,0-90.789,25.025-115.161,62.822l10.019,9.663   c21.725-35.312,60.73-58.905,105.143-58.905c43.963,0,82.627,23.117,104.475,57.835l10.396-9.042   C340.222,329.212,297.896,304.385,249.77,304.385z"
       id="path7"
       fill="#666666"
       style="fill:#000000" /></g><g
     id="g9"
     style="fill:#000000"><circle
       fill="#666666"
       cx="168.713"
       cy="219.021"
       r="30.554"
       id="circle11"
       style="fill:#000000" /><circle
       fill="#666666"
       cx="330.538"
       cy="219.021"
       r="30.554"
       id="circle13"
       style="fill:#000000" /></g></svg>